<svg width="30" height="30" fill="none" xmlns="http://www.w3.org/2000/svg"><circle cx="15" cy="15" r="14.5" stroke="#F6F6F5"/><path d="M6.623 20.329c1.867.168 3.55-.303 5.082-1.452-1.602-.14-2.674-.94-3.272-2.439.524.064 1.015.081 1.536-.06-1.727-.537-2.648-1.666-2.772-3.487.517.242 1.005.416 1.579.423-1.025-.77-1.549-1.767-1.529-3.023.01-.578.165-1.122.47-1.636 1.899 2.22 4.28 3.45 7.213 3.655l-.04-.333c-.242-1.86.968-3.554 2.815-3.907 1.16-.222 2.184.084 3.05.884.135.12.25.148.417.104a8.38 8.38 0 0 0 1.938-.756c-.238.786-.729 1.377-1.394 1.875.151-.027.306-.047.457-.078a8.11 8.11 0 0 0 .92-.252c.152-.05.303-.107.481-.137-.087.12-.171.248-.265.366-.39.494-.84.927-1.334 1.313a.265.265 0 0 0-.09.188 9.976 9.976 0 0 1-.528 3.484c-.76 2.224-2.083 4.025-4.068 5.311-.981.635-2.053 1.052-3.199 1.294a10.562 10.562 0 0 1-3.423.147A9.485 9.485 0 0 1 7.4 20.81c-.272-.138-.534-.292-.8-.44.01-.014.017-.027.024-.04z" fill="#F6F6F5"/></svg>