<svg width="40" height="40" fill="none" xmlns="http://www.w3.org/2000/svg"><circle cx="20" cy="20" r="19.5" stroke="#b8926b"/><path d="M8.831 27.105c2.49.224 4.735-.403 6.777-1.935-2.136-.188-3.565-1.254-4.362-3.252.698.085 1.352.107 2.047-.08-2.303-.717-3.53-2.222-3.696-4.65.69.322 1.34.555 2.106.564-1.367-1.025-2.065-2.356-2.038-4.031.013-.77.219-1.496.627-2.181 2.53 2.96 5.706 4.6 9.616 4.873-.022-.17-.035-.305-.053-.444-.323-2.48 1.29-4.738 3.753-5.209 1.546-.295 2.912.112 4.067 1.178.18.162.332.197.556.14.9-.23 1.755-.56 2.584-1.009-.318 1.048-.972 1.837-1.859 2.5.202-.036.408-.063.61-.103a10.8 10.8 0 0 0 1.227-.336c.201-.068.403-.144.64-.184-.116.161-.228.332-.354.488-.52.659-1.12 1.237-1.778 1.752a.353.353 0 0 0-.12.25c.035 1.59-.189 3.14-.704 4.645-1.012 2.966-2.777 5.366-5.424 7.082-1.308.846-2.737 1.402-4.264 1.724a14.08 14.08 0 0 1-4.565.197 12.641 12.641 0 0 1-4.358-1.339c-.363-.183-.712-.39-1.066-.587.013-.017.022-.035.031-.053z" fill="#b8926b"/></svg>