<svg width="30" height="30" fill="none" xmlns="http://www.w3.org/2000/svg"><circle cx="15" cy="15" r="14.5" stroke="#F6F6F5"/><path d="M15.342 6.4c-4.614 0-6.941 3.326-6.941 6.1 0 1.68.632 3.174 1.989 3.73.222.092.422.003.486-.244.045-.171.151-.604.199-.784.065-.244.04-.33-.14-.544-.391-.464-.641-1.064-.641-1.915 0-2.467 1.836-4.676 4.782-4.676 2.608 0 4.041 1.602 4.041 3.742 0 2.815-1.239 5.191-3.079 5.191-1.016 0-1.777-.845-1.533-1.88.292-1.238.858-2.573.858-3.465 0-.8-.427-1.466-1.31-1.466-1.04 0-1.874 1.08-1.874 2.527 0 .922.31 1.545.31 1.545l-1.25 5.321c-.37 1.58-.055 3.515-.028 3.71.015.117.163.144.23.057.096-.126 1.334-1.662 1.754-3.196.12-.434.683-2.684.683-2.684.338.647 1.324 1.217 2.373 1.217 3.122 0 5.24-2.861 5.24-6.692 0-2.896-2.44-5.594-6.149-5.594z" fill="#F6F6F5"/></svg>