<svg width="40" height="40" fill="none" xmlns="http://www.w3.org/2000/svg"><circle cx="20" cy="20" r="19.5" stroke="#D8BFA9"/><path d="M20.456 8.533c-6.153 0-9.256 4.435-9.256 8.134 0 2.239.843 4.231 2.652 4.974.296.121.562.003.648-.326.06-.229.202-.805.265-1.045.087-.327.053-.441-.186-.726-.522-.618-.855-1.419-.855-2.553 0-3.29 2.448-6.236 6.376-6.236 3.478 0 5.389 2.137 5.389 4.99 0 3.754-1.653 6.922-4.106 6.922-1.355 0-2.37-1.127-2.044-2.508.39-1.65 1.143-3.43 1.143-4.62 0-1.066-.569-1.954-1.747-1.954-1.384 0-2.497 1.44-2.497 3.37 0 1.228.413 2.06.413 2.06l-1.666 7.094c-.495 2.106-.074 4.687-.038 4.948.02.154.218.191.307.074.128-.168 1.778-2.215 2.338-4.26.159-.58.911-3.579.911-3.579.45.863 1.765 1.623 3.164 1.623 4.163 0 6.987-3.816 6.987-8.923 0-3.862-3.253-7.459-8.198-7.459z" fill="#D8BFA9"/></svg>