<svg width="254" height="160" fill="none" xmlns="http://www.w3.org/2000/svg"><path d="M141.247 116.538c-61.975 23.973-118.548 27.036-126.36 6.842-7.811-20.195 36.096-56 98.071-79.973s118.548-27.036 126.359-6.842c6.398 16.539-21.893 43.547-66.388 65.952" stroke="#D8BFA9" stroke-width=".5" stroke-dasharray="9 9"/><path d="M238.5 40s.249 2.871 1.439 4.061S244 45.5 244 45.5s-2.871.25-4.061 1.439C238.749 48.129 238.5 51 238.5 51s-.249-2.871-1.439-4.061S233 45.5 233 45.5s2.871-.25 4.061-1.439C238.251 42.871 238.5 40 238.5 40zM229.5 10s.657 7.83 3.794 11.076C236.43 24.32 244 25 244 25s-7.57.68-10.706 3.924C230.157 32.17 229.5 40 229.5 40s-.657-7.83-3.794-11.076C222.57 25.68 215 25 215 25s7.57-.68 10.706-3.924C228.843 17.83 229.5 10 229.5 10z" fill="#D8BFA9"/></svg>