<svg width="357" height="211" fill="none" xmlns="http://www.w3.org/2000/svg"><path d="M194.646 147.465c-89.369 34.57-169.165 43.595-178.23 20.158-9.067-23.436 56.031-70.46 145.4-105.03C251.184 28.025 330.98 19 340.046 42.437c7.425 19.194-34.892 54.207-99.546 85.244" stroke="#D8BFA9" stroke-width=".5" stroke-dasharray="9 9"/><path d="M339.5 46s.295 3.393 1.701 4.8c1.406 1.406 4.799 1.7 4.799 1.7s-3.393.294-4.799 1.7c-1.406 1.407-1.701 4.8-1.701 4.8s-.295-3.393-1.701-4.8c-1.406-1.406-4.799-1.7-4.799-1.7s3.393-.294 4.799-1.7c1.406-1.407 1.701-4.8 1.701-4.8zM329 12s.77 8.875 4.448 12.552C337.125 28.23 346 29 346 29s-8.875.77-12.552 4.448C329.77 37.125 329 46 329 46s-.77-8.875-4.448-12.552C320.875 29.77 312 29 312 29s8.875-.77 12.552-4.448C328.23 20.875 329 12 329 12z" fill="#D8BFA9"/></svg>