<svg width="156" height="92" fill="none" xmlns="http://www.w3.org/2000/svg"><path d="M72 69C33.024 84.077 11.113 83.326 7.159 73.105c-3.954-10.222 24.437-30.73 63.413-45.806 38.975-15.077 73.777-19.013 77.73-8.792C151.54 26.878 138.197 39.464 110 53" stroke="#D8BFA9" stroke-width=".5" stroke-dasharray="7 7"/><path d="M142.5 4s.385 4.437 2.224 6.276C146.563 12.115 151 12.5 151 12.5s-4.437.385-6.276 2.224C142.885 16.562 142.5 21 142.5 21s-.385-4.438-2.224-6.276C138.437 12.885 134 12.5 134 12.5s4.437-.385 6.276-2.224C142.115 8.437 142.5 4 142.5 4zM147 21s.136 1.566.785 2.215c.649.65 2.215.785 2.215.785s-1.566.136-2.215.785C147.136 25.434 147 27 147 27s-.136-1.566-.785-2.215C145.566 24.135 144 24 144 24s1.566-.136 2.215-.785C146.864 22.566 147 21 147 21z" fill="#D8BFA9"/></svg>